<?xml version="1.0" standalone="no"?>
<!DOCTYPE svg PUBLIC "-//W3C//DTD SVG 20010904//EN"
 "http://www.w3.org/TR/2001/REC-SVG-20010904/DTD/svg10.dtd">
<svg version="1.0" xmlns="http://www.w3.org/2000/svg"
 width="1280.000000pt" height="1278.000000pt" viewBox="0 0 1280.000000 1278.000000"
 preserveAspectRatio="xMidYMid meet">
<metadata>
Created by potrace 1.15, written by Peter Selinger 2001-2017
</metadata>
<g transform="translate(0.000000,1278.000000) scale(0.100000,-0.100000)"
fill="#000000" stroke="none">
<path transform="scale(-1, 1) translate(-12800, 0)" d="M10960 12738 l-64 -41 -153 27 -153 28 -92 -27 c-51 -15 -98 -30
-104 -34 -6 -3 -45 -45 -88 -93 l-77 -88 -173 0 c-122 0 -177 -4 -188 -12 -9
-7 -69 -71 -132 -142 -102 -115 -126 -135 -213 -187 -91 -53 -102 -63 -153
-139 -47 -69 -57 -94 -71 -163 l-15 -82 -114 -52 c-62 -29 -119 -58 -125 -65
-7 -7 -29 -53 -50 -102 -41 -97 -41 -99 -1 -229 l15 -47 -107 -54 -107 -54
-40 -88 c-36 -81 -40 -98 -45 -194 l-5 -105 -92 -65 c-88 -62 -94 -69 -147
-166 -52 -94 -56 -105 -56 -167 l0 -67 -54 -27 c-46 -23 -70 -48 -148 -148
l-94 -120 -97 -16 c-90 -15 -105 -21 -182 -73 -52 -34 -99 -75 -122 -106 -20
-27 -43 -50 -49 -50 -7 0 -80 17 -162 39 l-149 39 -144 -29 c-79 -16 -177 -40
-219 -55 l-76 -27 -126 42 -127 42 -124 -14 c-124 -14 -124 -14 -200 -66 -42
-28 -84 -51 -94 -51 -10 0 -66 10 -125 22 l-107 22 -113 -24 -113 -24 -69 -67
-69 -66 -123 58 -123 58 -133 -21 -133 -20 -81 26 c-64 21 -100 26 -177 26
-52 0 -98 -4 -101 -9 -3 -5 -43 -41 -90 -80 l-84 -71 -117 55 -117 55 -157 0
-157 0 -49 -50 c-27 -27 -53 -50 -58 -50 -4 0 -36 23 -70 50 l-62 50 -95 0
c-130 0 -211 -30 -323 -122 -46 -37 -86 -63 -92 -59 -5 5 -60 47 -122 95
l-112 86 -80 0 c-72 0 -92 -5 -180 -41 l-99 -41 -38 26 c-36 24 -47 26 -150
26 -156 0 -245 -19 -327 -69 l-66 -40 -70 29 c-58 25 -84 30 -148 30 l-78 0
-130 -87 c-108 -72 -146 -92 -231 -118 -95 -30 -107 -37 -196 -113 -93 -79
-94 -81 -118 -157 -13 -42 -29 -79 -34 -83 -6 -4 -60 -23 -121 -43 -94 -30
-113 -40 -130 -67 -12 -18 -29 -31 -41 -32 -25 0 -77 -34 -150 -96 -47 -39
-53 -50 -68 -112 -10 -37 -20 -72 -24 -78 -4 -6 -39 -29 -77 -52 -58 -34 -82
-57 -132 -124 -60 -83 -60 -83 -76 -192 l-16 -109 -79 -81 c-78 -79 -81 -83
-107 -175 -28 -95 -28 -118 -9 -251 5 -29 -2 -47 -40 -106 -43 -67 -46 -74
-52 -166 -6 -88 -5 -99 15 -131 20 -33 21 -37 7 -104 -15 -69 -15 -72 12 -154
l27 -84 64 -21 65 -21 80 24 c44 13 82 23 83 23 2 0 -9 -19 -25 -42 -24 -35
-32 -61 -42 -144 l-13 -101 57 -123 56 -123 0 -135 0 -135 53 -95 c40 -74 64
-105 104 -136 29 -23 53 -46 53 -53 0 -6 -11 -43 -25 -81 l-25 -69 16 -114 15
-114 53 -53 53 -54 -40 -91 -39 -92 12 -70 c7 -38 30 -116 51 -173 22 -56 39
-108 39 -115 0 -7 -29 -59 -65 -115 l-65 -103 1 -112 c0 -62 6 -134 13 -162
l13 -50 -83 -85 -83 -85 -12 -149 -13 -148 -83 -56 c-86 -57 -84 -55 -108
-153 -4 -16 3 -59 19 -111 14 -46 26 -90 26 -96 0 -7 -18 -36 -40 -65 -21 -29
-57 -96 -80 -150 -37 -90 -40 -103 -40 -193 l0 -97 56 -71 c31 -39 80 -93 109
-121 50 -48 54 -55 83 -161 24 -84 39 -178 62 -385 17 -151 39 -347 50 -436
13 -100 20 -225 20 -330 0 -92 5 -287 10 -432 l10 -265 37 -39 c21 -21 63 -54
95 -73 l56 -34 7 -63 c4 -34 16 -107 27 -162 25 -125 41 -144 151 -181 78 -26
82 -26 256 -19 174 7 177 8 244 42 l69 34 -7 37 c-6 36 -4 39 27 52 18 8 39
27 47 41 14 25 12 31 -61 145 -132 206 -202 418 -279 841 l-50 278 11 315 c14
387 37 553 103 728 l42 113 65 36 c119 66 114 60 135 172 10 56 21 101 24 101
18 -1 63 -192 81 -347 26 -219 25 -406 0 -753 -19 -256 -20 -284 -6 -432 18
-182 31 -217 108 -289 l49 -46 9 -104 c5 -57 13 -126 18 -154 12 -60 61 -245
68 -257 15 -23 170 -82 276 -105 l117 -24 131 20 c107 16 137 25 170 48 38 26
40 30 35 66 -4 28 -1 39 10 43 8 4 22 30 31 60 l15 53 -99 148 c-135 202 -187
338 -241 632 l-38 206 8 320 c7 319 29 877 34 883 2 2 40 -2 86 -9 l83 -12 78
84 c117 125 111 109 84 217 -27 105 -34 99 81 77 43 -8 79 -15 81 -15 2 0 33
61 68 135 l65 136 -19 100 c-11 55 -16 101 -13 103 3 1 43 13 88 26 l83 23 56
106 57 106 -31 118 -30 118 88 44 c80 40 90 48 95 77 9 58 25 163 25 171 0 4
6 7 13 7 6 0 30 -30 52 -66 34 -56 49 -70 99 -96 58 -29 59 -29 130 -17 39 7
92 23 118 36 26 12 52 23 58 23 6 0 56 -29 113 -64 100 -63 104 -65 202 -77
l100 -12 72 37 c40 20 78 36 86 36 7 0 28 -16 47 -35 19 -19 64 -53 101 -75
64 -38 72 -40 148 -40 73 0 89 4 151 35 38 19 73 35 78 35 5 0 30 -16 55 -35
46 -35 46 -35 151 -35 162 0 202 11 257 72 l46 50 71 -36 c64 -32 80 -36 150
-36 l78 0 49 50 c27 28 53 50 58 50 5 0 46 -22 92 -50 46 -27 89 -50 96 -50 7
0 55 12 107 27 86 25 97 31 119 65 l25 37 78 -39 78 -39 125 38 c70 21 129 36
132 33 3 -3 5 -24 5 -46 0 -37 6 -47 66 -107 l67 -67 -27 -109 -27 -109 42
-97 c40 -95 60 -120 142 -184 l29 -22 -65 -123 -65 -123 14 -100 14 -100 57
-57 c36 -37 76 -65 109 -79 61 -24 54 -3 84 -239 26 -206 50 -600 50 -836 0
-107 -9 -293 -20 -424 -43 -503 -62 -908 -44 -955 8 -20 67 -50 126 -65 l45
-12 14 -71 c7 -40 29 -128 49 -197 l36 -125 71 -41 c65 -37 87 -43 235 -68
l163 -26 115 28 c115 28 200 69 200 96 0 7 -7 19 -15 26 -19 16 -19 40 0 40 8
0 26 20 41 45 l26 46 -44 67 c-25 37 -67 107 -93 156 -27 49 -56 97 -64 106
-9 9 -41 54 -72 101 -47 70 -64 110 -97 220 -93 306 -90 288 -97 574 -8 314 9
518 86 1020 55 358 108 587 144 620 12 11 42 56 65 100 37 67 43 87 41 132
l-1 53 47 -7 c93 -12 96 -14 115 -79 30 -100 96 -421 119 -579 19 -138 21
-177 16 -490 -4 -187 -13 -461 -21 -609 l-14 -269 45 -67 c25 -39 72 -90 109
-120 l64 -52 0 -66 c0 -37 5 -87 11 -111 5 -24 12 -69 14 -100 3 -31 15 -99
26 -152 l22 -96 60 -48 c58 -47 64 -49 216 -81 l156 -33 124 22 c118 21 125
24 149 55 23 30 24 37 14 64 -10 28 -9 34 19 66 17 19 29 42 26 51 -2 10 -45
78 -94 152 -149 223 -175 278 -236 504 -36 130 -68 278 -91 423 -33 202 -36
243 -36 420 0 231 28 610 70 942 16 129 31 259 34 288 3 38 18 78 55 146 44
81 53 108 66 196 l15 102 -61 69 c-33 38 -59 73 -57 79 1 5 34 29 72 52 l69
43 33 120 c18 66 33 127 34 135 0 8 -25 40 -56 71 l-56 56 65 76 65 76 -24
113 c-13 62 -30 132 -38 156 l-13 42 33 20 c18 12 54 48 81 80 43 53 51 71 73
166 l25 106 98 41 c94 40 100 45 153 114 53 69 57 79 80 184 23 109 25 113 93
204 69 91 69 93 96 216 14 68 28 132 31 141 3 9 29 46 59 83 30 37 55 72 55
78 0 7 7 56 14 110 12 82 20 108 54 165 22 37 72 124 111 194 l71 128 0 135 0
134 75 51 c41 28 80 60 86 71 25 48 57 160 69 244 11 79 20 103 72 197 l59
107 -2 102 -2 103 64 41 c109 70 164 156 281 434 55 130 122 287 150 350 39
89 53 136 64 210 8 53 14 101 14 108 0 6 31 49 70 95 l70 83 0 85 c0 47 4 91
9 99 10 16 31 15 439 -20 l263 -22 102 23 c56 12 118 30 137 40 19 10 66 21
103 25 l69 7 86 111 c48 61 110 139 139 173 28 34 57 80 64 102 10 36 9 45 -9
81 -12 21 -46 102 -77 178 -46 112 -362 702 -487 910 l-19 32 104 70 c95 64
111 79 171 165 36 52 66 101 66 108 0 27 -58 57 -219 114 -91 32 -165 64 -168
72 -4 8 1 78 9 156 l16 141 -41 69 c-28 47 -50 72 -67 77 -14 4 -46 12 -71 19
l-46 12 -11 76 c-11 69 -17 82 -71 151 l-59 76 -102 28 -102 28 -65 -26 -65
-26 -36 23 c-21 12 -76 48 -124 80 l-87 58 -103 0 -103 0 -65 -42z"/>
</g>
</svg>
